<svg id="visual" viewBox="0 0 960 300" width="960" height="300" xmlns="http://www.w3.org/2000/svg" xmlns:xlink="http://www.w3.org/1999/xlink" version="1.1"><path d="M0 206L10.7 193.8C21.3 181.7 42.7 157.3 64 152.8C85.3 148.3 106.7 163.7 128 164.2C149.3 164.7 170.7 150.3 192 147C213.3 143.7 234.7 151.3 256 151.8C277.3 152.3 298.7 145.7 320 142.3C341.3 139 362.7 139 384 146.5C405.3 154 426.7 169 448 171.8C469.3 174.7 490.7 165.3 512 169.7C533.3 174 554.7 192 576 188.2C597.3 184.3 618.7 158.7 640 152.7C661.3 146.7 682.7 160.3 704 172.7C725.3 185 746.7 196 768 195.5C789.3 195 810.7 183 832 183.7C853.3 184.3 874.7 197.7 896 198C917.3 198.3 938.7 185.7 949.3 179.3L960 173L960 301L949.3 301C938.7 301 917.3 301 896 301C874.7 301 853.3 301 832 301C810.7 301 789.3 301 768 301C746.7 301 725.3 301 704 301C682.7 301 661.3 301 640 301C618.7 301 597.3 301 576 301C554.7 301 533.3 301 512 301C490.7 301 469.3 301 448 301C426.7 301 405.3 301 384 301C362.7 301 341.3 301 320 301C298.7 301 277.3 301 256 301C234.7 301 213.3 301 192 301C170.7 301 149.3 301 128 301C106.7 301 85.3 301 64 301C42.7 301 21.3 301 10.7 301L0 301Z" fill="#13b0eb"></path><path d="M0 186L10.7 184.5C21.3 183 42.7 180 64 184.2C85.3 188.3 106.7 199.7 128 198.5C149.3 197.3 170.7 183.7 192 182.2C213.3 180.7 234.7 191.3 256 198C277.3 204.7 298.7 207.3 320 206.2C341.3 205 362.7 200 384 201.3C405.3 202.7 426.7 210.3 448 214.3C469.3 218.3 490.7 218.7 512 217.3C533.3 216 554.7 213 576 206.3C597.3 199.7 618.7 189.3 640 187.7C661.3 186 682.7 193 704 196.3C725.3 199.7 746.7 199.3 768 199.7C789.3 200 810.7 201 832 197.2C853.3 193.3 874.7 184.7 896 178C917.3 171.3 938.7 166.7 949.3 164.3L960 162L960 301L949.3 301C938.7 301 917.3 301 896 301C874.7 301 853.3 301 832 301C810.7 301 789.3 301 768 301C746.7 301 725.3 301 704 301C682.7 301 661.3 301 640 301C618.7 301 597.3 301 576 301C554.7 301 533.3 301 512 301C490.7 301 469.3 301 448 301C426.7 301 405.3 301 384 301C362.7 301 341.3 301 320 301C298.7 301 277.3 301 256 301C234.7 301 213.3 301 192 301C170.7 301 149.3 301 128 301C106.7 301 85.3 301 64 301C42.7 301 21.3 301 10.7 301L0 301Z" fill="#0096dd"></path><path d="M0 186L10.7 192.8C21.3 199.7 42.7 213.3 64 222.2C85.3 231 106.7 235 128 226.5C149.3 218 170.7 197 192 187.3C213.3 177.7 234.7 179.3 256 184C277.3 188.7 298.7 196.3 320 200.3C341.3 204.3 362.7 204.7 384 206C405.3 207.3 426.7 209.7 448 205.2C469.3 200.7 490.7 189.3 512 195.2C533.3 201 554.7 224 576 227.5C597.3 231 618.7 215 640 207.7C661.3 200.3 682.7 201.7 704 200.2C725.3 198.7 746.7 194.3 768 201C789.3 207.7 810.7 225.3 832 233.2C853.3 241 874.7 239 896 227.7C917.3 216.3 938.7 195.7 949.3 185.3L960 175L960 301L949.3 301C938.7 301 917.3 301 896 301C874.7 301 853.3 301 832 301C810.7 301 789.3 301 768 301C746.7 301 725.3 301 704 301C682.7 301 661.3 301 640 301C618.7 301 597.3 301 576 301C554.7 301 533.3 301 512 301C490.7 301 469.3 301 448 301C426.7 301 405.3 301 384 301C362.7 301 341.3 301 320 301C298.7 301 277.3 301 256 301C234.7 301 213.3 301 192 301C170.7 301 149.3 301 128 301C106.7 301 85.3 301 64 301C42.7 301 21.3 301 10.7 301L0 301Z" fill="#007ccd"></path><path d="M0 224L10.7 219.3C21.3 214.7 42.7 205.3 64 209.2C85.3 213 106.7 230 128 239.7C149.3 249.3 170.7 251.7 192 252.5C213.3 253.3 234.7 252.7 256 254.2C277.3 255.7 298.7 259.3 320 256.3C341.3 253.3 362.7 243.7 384 243.2C405.3 242.7 426.7 251.3 448 254.5C469.3 257.7 490.7 255.3 512 247.8C533.3 240.3 554.7 227.7 576 222.2C597.3 216.7 618.7 218.3 640 215.2C661.3 212 682.7 204 704 207.8C725.3 211.7 746.7 227.3 768 230.3C789.3 233.3 810.7 223.7 832 222.8C853.3 222 874.7 230 896 228.7C917.3 227.3 938.7 216.7 949.3 211.3L960 206L960 301L949.3 301C938.7 301 917.3 301 896 301C874.7 301 853.3 301 832 301C810.7 301 789.3 301 768 301C746.7 301 725.3 301 704 301C682.7 301 661.3 301 640 301C618.7 301 597.3 301 576 301C554.7 301 533.3 301 512 301C490.7 301 469.3 301 448 301C426.7 301 405.3 301 384 301C362.7 301 341.3 301 320 301C298.7 301 277.3 301 256 301C234.7 301 213.3 301 192 301C170.7 301 149.3 301 128 301C106.7 301 85.3 301 64 301C42.7 301 21.3 301 10.7 301L0 301Z" fill="#0062b9"></path><path d="M0 247L10.7 248C21.3 249 42.7 251 64 250.3C85.3 249.7 106.7 246.3 128 240.7C149.3 235 170.7 227 192 229.8C213.3 232.7 234.7 246.3 256 248.7C277.3 251 298.7 242 320 244C341.3 246 362.7 259 384 258.3C405.3 257.7 426.7 243.3 448 234.2C469.3 225 490.7 221 512 222.7C533.3 224.3 554.7 231.7 576 235.3C597.3 239 618.7 239 640 235.8C661.3 232.7 682.7 226.3 704 223.2C725.3 220 746.7 220 768 228.3C789.3 236.7 810.7 253.3 832 252.8C853.3 252.3 874.7 234.7 896 235.2C917.3 235.7 938.7 254.3 949.3 263.7L960 273L960 301L949.3 301C938.7 301 917.3 301 896 301C874.7 301 853.3 301 832 301C810.7 301 789.3 301 768 301C746.7 301 725.3 301 704 301C682.7 301 661.3 301 640 301C618.7 301 597.3 301 576 301C554.7 301 533.3 301 512 301C490.7 301 469.3 301 448 301C426.7 301 405.3 301 384 301C362.7 301 341.3 301 320 301C298.7 301 277.3 301 256 301C234.7 301 213.3 301 192 301C170.7 301 149.3 301 128 301C106.7 301 85.3 301 64 301C42.7 301 21.3 301 10.7 301L0 301Z" fill="#0048a3"></path><path d="M0 274L10.7 269.3C21.3 264.7 42.7 255.3 64 249.8C85.3 244.3 106.7 242.7 128 243.8C149.3 245 170.7 249 192 253.7C213.3 258.3 234.7 263.7 256 263.8C277.3 264 298.7 259 320 254.3C341.3 249.7 362.7 245.3 384 249.3C405.3 253.3 426.7 265.7 448 269C469.3 272.3 490.7 266.7 512 260.7C533.3 254.7 554.7 248.3 576 250.3C597.3 252.3 618.7 262.7 640 269.2C661.3 275.7 682.7 278.3 704 275.7C725.3 273 746.7 265 768 258.5C789.3 252 810.7 247 832 245.5C853.3 244 874.7 246 896 245.3C917.3 244.7 938.7 241.3 949.3 239.7L960 238L960 301L949.3 301C938.7 301 917.3 301 896 301C874.7 301 853.3 301 832 301C810.7 301 789.3 301 768 301C746.7 301 725.3 301 704 301C682.7 301 661.3 301 640 301C618.7 301 597.3 301 576 301C554.7 301 533.3 301 512 301C490.7 301 469.3 301 448 301C426.7 301 405.3 301 384 301C362.7 301 341.3 301 320 301C298.7 301 277.3 301 256 301C234.7 301 213.3 301 192 301C170.7 301 149.3 301 128 301C106.7 301 85.3 301 64 301C42.7 301 21.3 301 10.7 301L0 301Z" fill="#002d8b"></path><path d="M0 276L10.7 278.7C21.3 281.3 42.7 286.7 64 286.2C85.3 285.7 106.7 279.3 128 277.7C149.3 276 170.7 279 192 282C213.3 285 234.7 288 256 289.2C277.3 290.3 298.7 289.7 320 287.8C341.3 286 362.7 283 384 279.8C405.3 276.7 426.7 273.3 448 271.5C469.3 269.7 490.7 269.3 512 269.5C533.3 269.7 554.7 270.3 576 272C597.3 273.7 618.7 276.3 640 278.7C661.3 281 682.7 283 704 280.8C725.3 278.7 746.7 272.3 768 268.2C789.3 264 810.7 262 832 263.3C853.3 264.7 874.7 269.3 896 269.2C917.3 269 938.7 264 949.3 261.5L960 259L960 301L949.3 301C938.7 301 917.3 301 896 301C874.7 301 853.3 301 832 301C810.7 301 789.3 301 768 301C746.7 301 725.3 301 704 301C682.7 301 661.3 301 640 301C618.7 301 597.3 301 576 301C554.7 301 533.3 301 512 301C490.7 301 469.3 301 448 301C426.7 301 405.3 301 384 301C362.7 301 341.3 301 320 301C298.7 301 277.3 301 256 301C234.7 301 213.3 301 192 301C170.7 301 149.3 301 128 301C106.7 301 85.3 301 64 301C42.7 301 21.3 301 10.7 301L0 301Z" fill="#051072"></path></svg>