<svg id="visual" viewBox="0 0 900 600" width="900" height="600" xmlns="http://www.w3.org/2000/svg" xmlns:xlink="http://www.w3.org/1999/xlink" version="1.1"><path d="M0 110L13.7 112.3C27.3 114.7 54.7 119.3 82 122.8C109.3 126.3 136.7 128.7 163.8 139.8C191 151 218 171 245.2 193.8C272.3 216.7 299.7 242.3 327 248.3C354.3 254.3 381.7 240.7 409 240.7C436.3 240.7 463.7 254.3 491 256C518.3 257.7 545.7 247.3 573 240.5C600.3 233.7 627.7 230.3 654.8 219.2C682 208 709 189 736.2 179.5C763.3 170 790.7 170 818 183.8C845.3 197.7 872.7 225.3 886.3 239.2L900 253L900 601L886.3 601C872.7 601 845.3 601 818 601C790.7 601 763.3 601 736.2 601C709 601 682 601 654.8 601C627.7 601 600.3 601 573 601C545.7 601 518.3 601 491 601C463.7 601 436.3 601 409 601C381.7 601 354.3 601 327 601C299.7 601 272.3 601 245.2 601C218 601 191 601 163.8 601C136.7 601 109.3 601 82 601C54.7 601 27.3 601 13.7 601L0 601Z" fill="#13b0eb"></path><path d="M0 226L13.7 233.2C27.3 240.3 54.7 254.7 82 250.5C109.3 246.3 136.7 223.7 163.8 209C191 194.3 218 187.7 245.2 204.3C272.3 221 299.7 261 327 273.2C354.3 285.3 381.7 269.7 409 264.7C436.3 259.7 463.7 265.3 491 252.3C518.3 239.3 545.7 207.7 573 212C600.3 216.3 627.7 256.7 654.8 274.7C682 292.7 709 288.3 736.2 272.3C763.3 256.3 790.7 228.7 818 231.8C845.3 235 872.7 269 886.3 286L900 303L900 601L886.3 601C872.7 601 845.3 601 818 601C790.7 601 763.3 601 736.2 601C709 601 682 601 654.8 601C627.7 601 600.3 601 573 601C545.7 601 518.3 601 491 601C463.7 601 436.3 601 409 601C381.7 601 354.3 601 327 601C299.7 601 272.3 601 245.2 601C218 601 191 601 163.8 601C136.7 601 109.3 601 82 601C54.7 601 27.3 601 13.7 601L0 601Z" fill="#0096dd"></path><path d="M0 304L13.7 314.8C27.3 325.7 54.7 347.3 82 352.7C109.3 358 136.7 347 163.8 341.7C191 336.3 218 336.7 245.2 341.7C272.3 346.7 299.7 356.3 327 337.5C354.3 318.7 381.7 271.3 409 264.2C436.3 257 463.7 290 491 313C518.3 336 545.7 349 573 338C600.3 327 627.7 292 654.8 279.3C682 266.7 709 276.3 736.2 286.7C763.3 297 790.7 308 818 315.5C845.3 323 872.7 327 886.3 329L900 331L900 601L886.3 601C872.7 601 845.3 601 818 601C790.7 601 763.3 601 736.2 601C709 601 682 601 654.8 601C627.7 601 600.3 601 573 601C545.7 601 518.3 601 491 601C463.7 601 436.3 601 409 601C381.7 601 354.3 601 327 601C299.7 601 272.3 601 245.2 601C218 601 191 601 163.8 601C136.7 601 109.3 601 82 601C54.7 601 27.3 601 13.7 601L0 601Z" fill="#007ccd"></path><path d="M0 295L13.7 309.8C27.3 324.7 54.7 354.3 82 358.5C109.3 362.7 136.7 341.3 163.8 329.5C191 317.7 218 315.3 245.2 321.3C272.3 327.3 299.7 341.7 327 349.3C354.3 357 381.7 358 409 359C436.3 360 463.7 361 491 357.3C518.3 353.7 545.7 345.3 573 352.7C600.3 360 627.7 383 654.8 383.3C682 383.7 709 361.3 736.2 352.3C763.3 343.3 790.7 347.7 818 346.7C845.3 345.7 872.7 339.3 886.3 336.2L900 333L900 601L886.3 601C872.7 601 845.3 601 818 601C790.7 601 763.3 601 736.2 601C709 601 682 601 654.8 601C627.7 601 600.3 601 573 601C545.7 601 518.3 601 491 601C463.7 601 436.3 601 409 601C381.7 601 354.3 601 327 601C299.7 601 272.3 601 245.2 601C218 601 191 601 163.8 601C136.7 601 109.3 601 82 601C54.7 601 27.3 601 13.7 601L0 601Z" fill="#0062b9"></path><path d="M0 367L13.7 379.2C27.3 391.3 54.7 415.7 82 426.5C109.3 437.3 136.7 434.7 163.8 439C191 443.3 218 454.7 245.2 448.7C272.3 442.7 299.7 419.3 327 416.2C354.3 413 381.7 430 409 436.2C436.3 442.3 463.7 437.7 491 434.2C518.3 430.7 545.7 428.3 573 421.2C600.3 414 627.7 402 654.8 390.8C682 379.7 709 369.3 736.2 378.5C763.3 387.7 790.7 416.3 818 424.3C845.3 432.3 872.7 419.7 886.3 413.3L900 407L900 601L886.3 601C872.7 601 845.3 601 818 601C790.7 601 763.3 601 736.2 601C709 601 682 601 654.8 601C627.7 601 600.3 601 573 601C545.7 601 518.3 601 491 601C463.7 601 436.3 601 409 601C381.7 601 354.3 601 327 601C299.7 601 272.3 601 245.2 601C218 601 191 601 163.8 601C136.7 601 109.3 601 82 601C54.7 601 27.3 601 13.7 601L0 601Z" fill="#0048a3"></path><path d="M0 501L13.7 497.3C27.3 493.7 54.7 486.3 82 474.3C109.3 462.3 136.7 445.7 163.8 442.3C191 439 218 449 245.2 459.2C272.3 469.3 299.7 479.7 327 477.3C354.3 475 381.7 460 409 462.2C436.3 464.3 463.7 483.7 491 493.2C518.3 502.7 545.7 502.3 573 503C600.3 503.7 627.7 505.3 654.8 504.2C682 503 709 499 736.2 497.3C763.3 495.7 790.7 496.3 818 498.8C845.3 501.3 872.7 505.7 886.3 507.8L900 510L900 601L886.3 601C872.7 601 845.3 601 818 601C790.7 601 763.3 601 736.2 601C709 601 682 601 654.8 601C627.7 601 600.3 601 573 601C545.7 601 518.3 601 491 601C463.7 601 436.3 601 409 601C381.7 601 354.3 601 327 601C299.7 601 272.3 601 245.2 601C218 601 191 601 163.8 601C136.7 601 109.3 601 82 601C54.7 601 27.3 601 13.7 601L0 601Z" fill="#002d8b"></path><path d="M0 520L13.7 519C27.3 518 54.7 516 82 519.8C109.3 523.7 136.7 533.3 163.8 541.2C191 549 218 555 245.2 548.2C272.3 541.3 299.7 521.7 327 511.3C354.3 501 381.7 500 409 508.2C436.3 516.3 463.7 533.7 491 537.7C518.3 541.7 545.7 532.3 573 521.8C600.3 511.3 627.7 499.7 654.8 496.7C682 493.7 709 499.3 736.2 501.7C763.3 504 790.7 503 818 510.2C845.3 517.3 872.7 532.7 886.3 540.3L900 548L900 601L886.3 601C872.7 601 845.3 601 818 601C790.7 601 763.3 601 736.2 601C709 601 682 601 654.8 601C627.7 601 600.3 601 573 601C545.7 601 518.3 601 491 601C463.7 601 436.3 601 409 601C381.7 601 354.3 601 327 601C299.7 601 272.3 601 245.2 601C218 601 191 601 163.8 601C136.7 601 109.3 601 82 601C54.7 601 27.3 601 13.7 601L0 601Z" fill="#051072"></path></svg>